<svg viewBox="0 0 16 16" fill="currentColor">
  <path d="M5.30949 3.66668C5.30949 4.40306 4.71253 5.00001 3.97616 5.00001C3.23978 5.00001 2.64282 4.40306 2.64282 3.66668C2.64282 2.9303 3.23978 2.33334 3.97616 2.33334C4.71253 2.33334 5.30949 2.9303 5.30949 3.66668Z" />
  <path d="M7.84418 5.01644C8.15877 4.95049 8.46726 5.15205 8.53321 5.46665L10.2852 9.84731C10.301 9.88672 10.3091 9.92878 10.3091 9.97124C10.3092 10.1553 10.16 10.3046 9.97587 10.3046H2.64254C2.58216 10.3047 2.52292 10.2883 2.47113 10.2572C2.31322 10.1626 2.26191 9.95789 2.35654 9.79998L4.01387 7.04065C4.06839 6.93606 4.14606 6.84529 4.24096 6.77525C4.58549 6.52097 5.07092 6.59412 5.32521 6.93865L6.05321 7.81465C6.06928 7.83404 6.08955 7.84953 6.11247 7.85997C6.19625 7.8981 6.29508 7.86109 6.33321 7.77731L7.39987 5.44131C7.45499 5.22664 7.62726 5.06191 7.84418 5.01644Z" />
  <path fill-rule="evenodd" clip-rule="evenodd" d="M11.3333 12.6667C12.0697 12.6667 12.6667 12.0697 12.6667 11.3333V1.33333C12.6667 0.596953 12.0697 0 11.3333 0H1.33333C0.596953 0 0 0.596954 0 1.33333V11.3333C0 12.0697 0.596953 12.6667 1.33333 12.6667H11.3333ZM1.33333 1.66667C1.33333 1.48257 1.48257 1.33333 1.66667 1.33333H11C11.1841 1.33333 11.3333 1.48257 11.3333 1.66667V11C11.3333 11.1841 11.1841 11.3333 11 11.3333H1.66667C1.48257 11.3333 1.33333 11.1841 1.33333 11V1.66667Z" />
  <path d="M14.7868 4.70869C15.5202 4.77501 16.061 5.42329 15.9947 6.15668L15.21 14.788C15.1429 15.5213 14.494 16.0624 13.7607 15.9953L4.46666 15.146C4.45162 15.1452 4.43661 15.1438 4.42167 15.142C4.05624 15.097 3.79649 14.7643 3.84149 14.3988C3.8865 14.0334 4.21923 13.7737 4.58465 13.8187L13.5467 14.6347C13.7298 14.6513 13.8918 14.5164 13.9087 14.3333L14.6353 6.36801C14.6519 6.18466 14.5167 6.02187 14.3333 6.00534L14 5.97601C13.6333 5.94287 13.3629 5.61873 13.396 5.25201C13.4291 4.88529 13.7533 4.61487 14.12 4.64801L14.7868 4.70869Z" />
</svg>
