<svg viewBox="0 0 16 16" fill="currentColor">
  <path d="M13 10.5684L12.9926 3.52476C12.9926 3.36216 12.9459 3.23405 12.8523 3.14043C12.7588 3.04681 12.6307 3 12.4683 3L5.42984 3.00739C5.27228 3.00739 5.14673 3.05666 5.05318 3.15521C4.95963 3.25376 4.91285 3.36709 4.91285 3.4952C4.91285 3.63316 4.96209 3.74772 5.06056 3.83888C5.15904 3.93003 5.27474 3.97561 5.40768 3.97561H8.19203L11.5155 3.87953L10.2452 5.03991L3.1551 12.15C3.0517 12.2486 3 12.3619 3 12.49C3 12.5787 3.02216 12.6625 3.06647 12.7413C3.11078 12.8202 3.17233 12.883 3.25111 12.9298C3.32989 12.9766 3.41359 13 3.50222 13C3.63516 13 3.75086 12.9507 3.84934 12.8522L10.9468 5.74205L12.1064 4.47819L12.0104 7.44197V10.5831C12.0104 10.7162 12.0584 10.832 12.1544 10.9305C12.2504 11.0291 12.3673 11.0783 12.5052 11.0783C12.6381 11.0783 12.7538 11.0303 12.8523 10.9342C12.9508 10.8381 13 10.7162 13 10.5684L13 10.5684Z"/>
</svg>
