<svg viewBox="0 0 16 16" fill="currentColor">
  <path d="M7 9.38782C6.55241 9.38782 6.134 9.30414 5.74479 9.13678C5.35558 8.96942 5.01404 8.73881 4.72019 8.44495C4.42633 8.1511 4.19572 7.80956 4.02836 7.42035C3.861 7.03114 3.77732 6.61273 3.77732 6.16514C3.77732 5.71754 3.861 5.29816 4.02836 4.90701C4.19572 4.51585 4.42633 4.17334 4.72019 3.87948C5.01404 3.58563 5.35558 3.35502 5.74479 3.18766C6.134 3.0203 6.55241 2.93661 7 2.93661C7.44371 2.93661 7.86017 3.0203 8.24938 3.18766C8.63859 3.35502 8.98013 3.58563 9.27398 3.87948C9.56784 4.17334 9.79845 4.51585 9.96581 4.90701C10.1332 5.29816 10.2169 5.71754 10.2169 6.16514C10.2169 6.61273 10.1332 7.03114 9.96581 7.42035C9.79845 7.80956 9.56784 8.1511 9.27398 8.44495C8.98013 8.73881 8.63859 8.96942 8.24938 9.13678C7.86017 9.30414 7.44371 9.38782 7 9.38782ZM7 8.14429C7.36197 8.14429 7.6928 8.05574 7.9925 7.87865C8.29219 7.70156 8.53059 7.46317 8.70768 7.16347C8.88477 6.86377 8.97332 6.531 8.97332 6.16514C8.97332 5.79538 8.88477 5.46163 8.70768 5.16389C8.53058 4.86614 8.29219 4.62872 7.9925 4.45163C7.6928 4.27453 7.36197 4.18599 7 4.18599C6.63414 4.18599 6.30234 4.27453 6.00459 4.45163C5.70684 4.62872 5.46845 4.86614 5.28941 5.16389C5.11037 5.46163 5.02085 5.79538 5.02085 6.16514C5.02085 6.531 5.11037 6.86377 5.28941 7.16347C5.46845 7.46317 5.70684 7.70156 6.00459 7.87865C6.30234 8.05574 6.63414 8.14429 7 8.14429ZM11.3378 4.86907C11.1159 4.86907 10.9281 4.7922 10.7744 4.63846C10.6207 4.48472 10.5438 4.29692 10.5438 4.07507C10.5438 3.85322 10.6207 3.66542 10.7744 3.51169C10.9281 3.35795 11.1159 3.28108 11.3378 3.28108C11.5557 3.28108 11.7426 3.35795 11.8983 3.51169C12.0539 3.66543 12.1318 3.85322 12.1318 4.07507C12.1318 4.29693 12.0539 4.48472 11.8983 4.63846C11.7426 4.7922 11.5557 4.86907 11.3378 4.86907ZM1.99083 11.4079H12.0033C12.6533 11.4079 13.1486 11.2395 13.4892 10.9028C13.8297 10.5662 14 10.0748 14 9.4287V3.28691C14 2.6486 13.8297 2.16013 13.4892 1.82152C13.1486 1.4829 12.6533 1.31359 12.0033 1.31359H10.8007C10.6489 1.31359 10.5243 1.30386 10.427 1.2844C10.3297 1.26494 10.2412 1.22894 10.1614 1.1764C10.0816 1.12385 9.99305 1.04698 9.89575 0.945788L9.43453 0.472896C9.27884 0.313319 9.11051 0.194607 8.92952 0.116764C8.74854 0.0389211 8.5121 0 8.22018 0H5.75063C5.45872 0 5.22324 0.0389211 5.0442 0.116764C4.86517 0.194607 4.69586 0.313318 4.53628 0.472896L4.0809 0.945788C3.933 1.09369 3.80067 1.19197 3.6839 1.24062C3.56714 1.28927 3.39783 1.31359 3.17598 1.31359H1.99083C1.34084 1.31359 0.846538 1.4829 0.507923 1.82152C0.169309 2.16013 0 2.6486 0 3.28691V9.4287C0 10.0748 0.169308 10.5662 0.507923 10.9028C0.846538 11.2395 1.34084 11.4079 1.99083 11.4079H1.99083Z"/>
</svg>
