<svg viewBox="0 0 16 16" fill="currentColor">
  <g>
    <path d="M46.9336 30.0666V30.0666C46.5709 28.3363 44.8742 27.2277 43.144 27.5904C41.9509 27.8405 41.0034 28.7466 40.7003 29.9273L34.8336 42.7753V42.7753C34.6239 43.2361 34.0803 43.4396 33.6196 43.2299C33.4935 43.1725 33.382 43.0873 33.2936 42.9806L29.2896 38.1626V38.1626C27.891 36.2677 25.2211 35.8654 23.3263 37.2639C22.8043 37.6491 22.3771 38.1484 22.0773 38.7236L12.9619 53.8999V53.8999C12.4415 54.7685 12.7237 55.8945 13.5922 56.4149C13.877 56.5856 14.2029 56.6757 14.5349 56.6756H54.8683V56.6756C55.8808 56.6754 56.7014 55.8544 56.7012 54.8418C56.7011 54.6084 56.6565 54.377 56.5696 54.1603L46.9336 30.0666Z" />
    <path d="M21.8685 27.5C25.9186 27.5 29.2018 24.2167 29.2018 20.1666C29.2018 16.1166 25.9186 12.8333 21.8685 12.8333C17.8184 12.8333 14.5352 16.1166 14.5352 20.1666C14.5352 24.2167 17.8184 27.5 21.8685 27.5Z" />
    <path d="M62.3333 69.6667V69.6667C66.3834 69.6667 69.6667 66.3834 69.6667 62.3333V7.33333C69.6667 3.28324 66.3834 0 62.3333 0H7.33333V0C3.28324 1.77035e-07 0 3.28325 0 7.33333V62.3333H0C-6.11545e-07 66.3834 3.28324 69.6667 7.33333 69.6667H62.3333ZM7.33333 9.16667V9.16667C7.33333 8.15415 8.15415 7.33333 9.16667 7.33333H60.5V7.33333C61.5125 7.33333 62.3333 8.15415 62.3333 9.16667V60.5C62.3333 61.5125 61.5125 62.3333 60.5 62.3333H9.16667V62.3333C8.15415 62.3333 7.33333 61.5125 7.33333 60.5V9.16667Z" />
    <path d="M87.9706 33.8617V33.8617C88.3354 29.8281 85.3611 26.2625 81.3275 25.8978C81.3272 25.8978 81.3269 25.8978 81.3266 25.8977L77.66 25.5641V25.5641C75.643 25.3818 73.8602 26.8691 73.678 28.8861C73.4957 30.903 74.983 32.6858 77 32.8681L78.8333 33.0294V33.0294C79.8417 33.1203 80.5856 34.0114 80.4947 35.0199C80.4945 35.0213 80.4944 35.0227 80.4943 35.0241L76.4976 78.8334V78.8334C76.4047 79.8404 75.5138 80.582 74.5066 80.4907L25.2156 76.0027V76.0027C23.2057 75.7552 21.3758 77.1838 21.1282 79.1937C20.8807 81.2035 22.3093 83.0335 24.3192 83.281C24.4014 83.2912 24.4839 83.2985 24.5666 83.303L75.6836 87.9744V87.9744C79.7169 88.3433 83.2856 85.3728 83.6545 81.3395C83.6546 81.3377 83.6548 81.3359 83.655 81.334L87.9706 33.8617Z" />
  </g>
</svg>